<?xml version="1.0" encoding="utf-8"?>
<!-- Generator: Adobe Illustrator 24.1.1, SVG Export Plug-In . SVG Version: 6.00 Build 0)  -->
<svg version="1.1" id="Capa_1" xmlns="http://www.w3.org/2000/svg" xmlns:xlink="http://www.w3.org/1999/xlink" x="0px" y="0px"
	 viewBox="0 0 694.3 174.5" style="enable-background:new 0 0 694.3 174.5;" xml:space="preserve">
<path d="M523.2,0c-47,0-85.2,38.2-85.2,85.2c0,47,38.2,85.2,85.2,85.2c47,0,85.2-38.2,85.2-85.2C608.5,38.2,570.2,0,523.2,0z
	 M550.5,24.3c-20.9,13.2-33.3,32.1-36,55c-7.1,3.4-13.5,5.3-19.9,5.9c-0.1-27.5,14.2-52.4,38-66.1C538.8,20,544.8,21.7,550.5,24.3z
	 M523.8,95.3c4.4,1.8,8.6,4.4,12.4,7.6c-11.6,12.8-28.6,20.4-46.2,20.4c-8.6,0-17.2-1.8-24.9-5.1c-3.7-6.5-6.3-13.7-7.7-21.1
	c8.6,3.8,18,6,27.4,6.6l0.2,0C498.4,104.6,510.4,102,523.8,95.3z M548.4,116.9c4.5,7.1,8,15.4,10.5,24.7
	c-10.7,6.8-22.9,10.4-35.7,10.4c-12.8,0-25-3.6-35.6-10.3c0.8,0,1.6,0,2.5,0C512.3,141.8,533.3,132.8,548.4,116.9z M536.4,67.4
	c22.2,4.5,41.2,20.4,49.3,41.5c-2.7,7.1-6.6,13.7-11.5,19.5c-8.1-23.5-22.4-40.7-41-49.2C533.8,75.1,534.9,71.1,536.4,67.4z
	 M567.9,35.7c12.6,11.4,20.4,27,21.8,43.8c-11-13.6-25.9-23.6-42.9-28.5C552.4,45,559.4,39.9,567.9,35.7z M476.2,83.9
	c-6.8-1.5-13.3-4.2-19.1-7.8c3.4-24.3,20.1-44.7,42.4-53.3C484.9,39.7,476.5,61.3,476.2,83.9z"/>
<g>
	<path d="M76.2,45.4v79.1H50V99.2c-5.3,1.6-10.1,2.4-14.4,2.4c-11.6,0-20.4-2.7-26.5-8.2C3,87.8,0,79.8,0,69.2V45.4h26.2v20.9
		c0,4.8,1.1,8.4,3.2,10.7c2.1,2.3,5.3,3.4,9.6,3.4c4.4,0,8.1-0.6,11-1.8V45.4H76.2z"/>
	<path d="M152.3,104.4v20.1H86.6V45.4h64.3v20.1h-38.1v9.3h33.4V94h-33.4v10.4H152.3z"/>
	<path d="M230.2,124.5l-0.2-36l-17.2,28.9H201l-17.2-27.7v34.8h-24.3V45.4h21.9l25.8,42.1l25.1-42.1h21.9l0.2,79.1H230.2z"/>
	<path d="M341.3,45.4v79.1h-26.2V66H291v58.4h-26.2V45.4H341.3z"/>
	<path d="M351.7,45.4h26.2v41.1l27.2-41.1h25.1v79.1H404v-41l-27.1,41h-25.2V45.4z"/>
</g>
<g>
	<path d="M694.3,45.4v79.1h-26.7V95.3H643v29.2h-26.7V45.4H643v28h24.6v-28H694.3z"/>
</g>
<g>
	<path d="M5.8,164.7c-1.8-1-3.2-2.4-4.2-4.2c-1-1.8-1.5-3.8-1.5-6.1s0.5-4.3,1.5-6.1c1-1.8,2.4-3.2,4.2-4.2c1.8-1,3.9-1.5,6.1-1.5
		c2,0,3.8,0.4,5.3,1.2c1.6,0.8,2.8,1.9,3.7,3.4l-2.3,1.6c-0.8-1.1-1.7-2-2.9-2.6c-1.2-0.6-2.4-0.9-3.8-0.9c-1.7,0-3.2,0.4-4.5,1.1
		c-1.3,0.7-2.4,1.8-3.1,3.2c-0.7,1.4-1.1,2.9-1.1,4.7c0,1.8,0.4,3.4,1.1,4.7c0.7,1.4,1.8,2.4,3.1,3.2c1.3,0.7,2.8,1.1,4.5,1.1
		c1.4,0,2.7-0.3,3.8-0.8c1.2-0.6,2.1-1.4,2.9-2.6l2.3,1.6c-0.9,1.5-2.2,2.6-3.7,3.4c-1.6,0.8-3.4,1.2-5.3,1.2
		C9.6,166.2,7.6,165.7,5.8,164.7z"/>
	<path d="M46.4,142.8V166h-3.1v-20.4H28.7V166h-3.1v-23.1H46.4z"/>
	<path d="M57.4,164.7c-1.8-1-3.2-2.4-4.2-4.2c-1-1.8-1.5-3.8-1.5-6.1s0.5-4.3,1.5-6.1c1-1.8,2.4-3.2,4.2-4.2c1.8-1,3.8-1.5,6-1.5
		c2.2,0,4.2,0.5,6,1.5c1.8,1,3.2,2.4,4.2,4.2c1,1.8,1.5,3.8,1.5,6.1s-0.5,4.3-1.5,6.1c-1,1.8-2.4,3.2-4.2,4.2c-1.8,1-3.8,1.5-6,1.5
		C61.2,166.2,59.2,165.7,57.4,164.7z M67.8,162.3c1.3-0.7,2.3-1.8,3.1-3.2c0.7-1.4,1.1-2.9,1.1-4.7c0-1.8-0.4-3.3-1.1-4.7
		c-0.7-1.4-1.8-2.4-3.1-3.2c-1.3-0.7-2.8-1.1-4.4-1.1c-1.6,0-3.1,0.4-4.4,1.1c-1.3,0.7-2.3,1.8-3.1,3.2c-0.7,1.4-1.1,2.9-1.1,4.7
		c0,1.8,0.4,3.3,1.1,4.7c0.7,1.4,1.8,2.4,3.1,3.2s2.8,1.1,4.4,1.1C65,163.4,66.5,163,67.8,162.3z"/>
	<path d="M98.3,144.1c1.8,1,3.1,2.4,4.1,4.2c1,1.8,1.5,3.8,1.5,6.1c0,2.3-0.5,4.4-1.5,6.2c-1,1.8-2.4,3.2-4.1,4.2
		c-1.7,1-3.7,1.5-5.9,1.5c-1.9,0-3.6-0.4-5.1-1.2c-1.5-0.8-2.8-1.9-3.7-3.4v12.9h-3.1v-31.7h3v4.6c0.9-1.5,2.2-2.7,3.7-3.5
		c1.5-0.8,3.3-1.2,5.2-1.2C94.5,142.6,96.5,143.1,98.3,144.1z M96.5,162.3c1.3-0.7,2.4-1.8,3.1-3.2s1.1-2.9,1.1-4.7
		c0-1.8-0.4-3.3-1.1-4.7c-0.7-1.4-1.8-2.4-3.1-3.2c-1.3-0.8-2.8-1.1-4.4-1.1c-1.6,0-3.1,0.4-4.4,1.1c-1.3,0.8-2.3,1.8-3.1,3.2
		c-0.7,1.4-1.1,2.9-1.1,4.7c0,1.8,0.4,3.3,1.1,4.7s1.8,2.4,3.1,3.2c1.3,0.7,2.8,1.1,4.4,1.1C93.7,163.4,95.2,163,96.5,162.3z"/>
	<path d="M124.6,145.6h-8.8V166h-3.1v-20.4H104v-2.8h20.6V145.6z"/>
	<path d="M127.7,142.8h3.1v18.4l15.4-18.4h2.8V166h-3.1v-18.4L130.5,166h-2.8V142.8z"/>
	<path d="M176,159.7c0,2-0.7,3.6-2.2,4.7c-1.5,1.1-3.7,1.6-6.7,1.6h-10.5v-23.1h10.2c2.6,0,4.7,0.5,6.2,1.5c1.5,1,2.2,2.5,2.2,4.4
		c0,1.3-0.3,2.3-1,3.2c-0.7,0.9-1.6,1.6-2.9,2C174.5,154.7,176,156.6,176,159.7z M159.6,153.1h7c1.8,0,3.2-0.3,4.1-1
		c1-0.7,1.4-1.7,1.4-2.9c0-1.3-0.5-2.3-1.4-2.9c-1-0.6-2.3-1-4.1-1h-7V153.1z M171.5,162.5c1-0.6,1.5-1.7,1.5-3s-0.5-2.4-1.4-3.1
		c-0.9-0.7-2.3-1-4.3-1h-7.7v8.1h7.3C169,163.5,170.5,163.2,171.5,162.5z"/>
	<path d="M181.9,142.8h3.1v10.3h14.6v-10.3h3.1V166h-3.1v-10.2h-14.6V166h-3.1V142.8z"/>
	<path d="M226.6,152.9c1.5,1.3,2.3,3.1,2.3,5.5c0,2.5-0.8,4.4-2.5,5.7c-1.6,1.3-4,2-7,1.9l-9.2,0v-23.1h3.1v8.1l6.6,0.1
		C222.9,151,225.1,151.7,226.6,152.9z M224.1,162.3c1.1-0.9,1.7-2.2,1.7-3.9c0-1.7-0.5-3-1.6-3.8c-1.1-0.8-2.7-1.2-4.9-1.3l-5.9-0.1
		v10.3l5.9,0.1C221.3,163.7,223,163.2,224.1,162.3z M232.8,142.8h3.1V166h-3.1V142.8z"/>
	<path d="M263.6,155.4h-19.4c0.2,2.4,1.1,4.3,2.8,5.8c1.7,1.5,3.8,2.2,6.3,2.2c1.4,0,2.8-0.3,4-0.8c1.2-0.5,2.2-1.3,3.1-2.3l1.8,2
		c-1,1.2-2.3,2.2-3.8,2.8c-1.5,0.6-3.2,1-5.1,1c-2.4,0-4.5-0.5-6.3-1.5c-1.8-1-3.3-2.4-4.3-4.2c-1-1.8-1.5-3.8-1.5-6.1
		s0.5-4.3,1.5-6.1c1-1.8,2.3-3.2,4-4.2c1.7-1,3.6-1.5,5.8-1.5c2.1,0,4.1,0.5,5.8,1.5c1.7,1,3,2.4,4,4.2c1,1.8,1.5,3.8,1.5,6.1
		L263.6,155.4z M246.8,147.5c-1.5,1.4-2.4,3.3-2.6,5.6h16.4c-0.2-2.3-1.1-4.1-2.6-5.6c-1.5-1.4-3.4-2.1-5.7-2.1
		C250.2,145.3,248.3,146,246.8,147.5z"/>
	<path d="M295.5,145.6h-8.8V166h-3.1v-20.4h-8.8v-2.8h20.6V145.6z"/>
	<path d="M301.1,164.7c-1.8-1-3.2-2.4-4.2-4.2c-1-1.8-1.5-3.8-1.5-6.1s0.5-4.3,1.5-6.1c1-1.8,2.4-3.2,4.2-4.2c1.8-1,3.8-1.5,6-1.5
		c2.2,0,4.2,0.5,6,1.5c1.8,1,3.2,2.4,4.2,4.2c1,1.8,1.5,3.8,1.5,6.1s-0.5,4.3-1.5,6.1c-1,1.8-2.4,3.2-4.2,4.2c-1.8,1-3.8,1.5-6,1.5
		C304.9,166.2,302.9,165.7,301.1,164.7z M311.6,162.3c1.3-0.7,2.3-1.8,3.1-3.2s1.1-2.9,1.1-4.7c0-1.8-0.4-3.3-1.1-4.7
		c-0.7-1.4-1.8-2.4-3.1-3.2c-1.3-0.7-2.8-1.1-4.4-1.1c-1.6,0-3.1,0.4-4.4,1.1c-1.3,0.7-2.3,1.8-3.1,3.2c-0.7,1.4-1.1,2.9-1.1,4.7
		c0,1.8,0.4,3.3,1.1,4.7c0.7,1.4,1.8,2.4,3.1,3.2c1.3,0.7,2.8,1.1,4.4,1.1C308.8,163.4,310.3,163,311.6,162.3z"/>
	<path d="M343.6,159.7c0,2-0.7,3.6-2.2,4.7c-1.5,1.1-3.7,1.6-6.7,1.6h-10.5v-23.1h10.2c2.6,0,4.7,0.5,6.2,1.5c1.5,1,2.2,2.5,2.2,4.4
		c0,1.3-0.3,2.3-1,3.2c-0.7,0.9-1.6,1.6-2.9,2C342.1,154.7,343.6,156.6,343.6,159.7z M327.2,153.1h7c1.8,0,3.2-0.3,4.1-1
		c1-0.7,1.4-1.7,1.4-2.9c0-1.3-0.5-2.3-1.4-2.9c-1-0.6-2.3-1-4.1-1h-7V153.1z M339.1,162.5c1-0.6,1.5-1.7,1.5-3s-0.5-2.4-1.4-3.1
		c-0.9-0.7-2.3-1-4.3-1h-7.7v8.1h7.3C336.6,163.5,338.1,163.2,339.1,162.5z"/>
	<path d="M364.4,144.9c1.6,1.5,2.4,3.7,2.4,6.7V166h-3v-3.6c-0.7,1.2-1.7,2.1-3.1,2.8c-1.4,0.7-3,1-4.9,1c-2.6,0-4.6-0.6-6.2-1.8
		s-2.3-2.9-2.3-4.9c0-2,0.7-3.5,2.1-4.8c1.4-1.2,3.7-1.8,6.8-1.8h7.3v-1.4c0-2-0.6-3.5-1.7-4.6c-1.1-1-2.7-1.6-4.9-1.6
		c-1.5,0-2.9,0.2-4.2,0.7c-1.3,0.5-2.5,1.2-3.5,2l-1.4-2.3c1.2-1,2.6-1.8,4.2-2.3c1.6-0.5,3.4-0.8,5.2-0.8
		C360.5,142.6,362.8,143.4,364.4,144.9z M360.9,162.5c1.3-0.8,2.2-2,2.8-3.5v-3.8h-7.3c-4,0-5.9,1.4-5.9,4.1c0,1.3,0.5,2.4,1.5,3.2
		c1,0.8,2.5,1.2,4.3,1.2C358.2,163.7,359.7,163.3,360.9,162.5z"/>
	<path d="M391.6,144.1c1.8,1,3.1,2.4,4.1,4.2c1,1.8,1.5,3.8,1.5,6.1c0,2.3-0.5,4.4-1.5,6.2c-1,1.8-2.4,3.2-4.1,4.2
		c-1.7,1-3.7,1.5-5.9,1.5c-1.9,0-3.6-0.4-5.1-1.2c-1.5-0.8-2.8-1.9-3.7-3.4v12.9h-3.1v-31.7h3v4.6c0.9-1.5,2.2-2.7,3.7-3.5
		c1.5-0.8,3.3-1.2,5.2-1.2C387.9,142.6,389.8,143.1,391.6,144.1z M389.9,162.3c1.3-0.7,2.4-1.8,3.1-3.2s1.1-2.9,1.1-4.7
		c0-1.8-0.4-3.3-1.1-4.7c-0.7-1.4-1.8-2.4-3.1-3.2c-1.3-0.8-2.8-1.1-4.4-1.1c-1.6,0-3.1,0.4-4.4,1.1c-1.3,0.8-2.3,1.8-3.1,3.2
		c-0.7,1.4-1.1,2.9-1.1,4.7c0,1.8,0.4,3.3,1.1,4.7c0.7,1.4,1.8,2.4,3.1,3.2c1.3,0.7,2.8,1.1,4.4,1.1
		C387.1,163.4,388.6,163,389.9,162.3z"/>
	<path d="M418.9,152.9c1.5,1.3,2.3,3.1,2.3,5.5c0,2.5-0.8,4.4-2.5,5.7c-1.6,1.3-4,2-7,1.9l-9.2,0v-23.1h3.1v8.1l6.6,0.1
		C415.2,151,417.4,151.7,418.9,152.9z M416.4,162.3c1.1-0.9,1.6-2.2,1.6-3.9c0-1.7-0.5-3-1.6-3.8c-1.1-0.8-2.7-1.2-4.9-1.3l-5.9-0.1
		v10.3l5.9,0.1C413.7,163.7,415.3,163.2,416.4,162.3z M425.1,142.8h3.1V166h-3.1V142.8z"/>
</g>
</svg>
