<?xml version="1.0" encoding="utf-8"?>
<!-- Generator: Adobe Illustrator 24.1.1, SVG Export Plug-In . SVG Version: 6.00 Build 0)  -->
<svg version="1.1" id="Layer_1" xmlns="http://www.w3.org/2000/svg" xmlns:xlink="http://www.w3.org/1999/xlink" x="0px" y="0px"
	 viewBox="0 0 217 32.9" style="enable-background:new 0 0 217 32.9;" xml:space="preserve">
<style type="text/css">
	.st0{fill-rule:evenodd;clip-rule:evenodd;}
</style>
<g>
	<path class="st0" d="M78.5,0.2c-37.7-1-66,4.5-67.2,13.8c-0.6,4.8,16.3,12.9,26.6,14.8c-9.1,1.8-21.5,2.8-36.8,2.7l-1,0.8
		c41.3,2.2,69.9-1.4,71.1-11.4c0.8-6.3-21-13.8-21-13.8l-0.9,0.2c0,0,8.3,3.9,8.3,9c0,5.3-6.2,9.6-18.2,12.2
		c-8.1-2.9-12.7-6.5-12.7-10.3C26.8,9.3,45.3,2.3,78,1.4L78.5,0.2z"/>
	<path class="st0" d="M87,26.2c1.2,0,2.3-0.9,2.7-2l0.7-2.2H98L94.7,32H71.1l10.5-32h23.5l-2.8,8.5h-7.5L95,8.2c0.4-1.1-0.2-2-1.3-2
		h-3.5h-0.1c-1.2,0-2.3,0.9-2.7,2l-5.3,16c-0.4,1.1,0.3,2,1.4,2H87z"/>
	<polygon class="st0" points="105.9,0.1 114.2,0.1 116,10.5 123.6,0.1 132.4,0.1 117.6,20.2 113.8,32 105.7,32 109.2,20.2 	"/>
	<path class="st0" d="M178.8,32v-5.5l7.3-10.5L184.9,0h8.6l0.6,8.6c0,0.1,0,0.4,0.1,0.4c0.1,0,0.1-0.1,0.3-0.3l6.2-8.8h9.9
		l-10.9,14.8l1.6,17.1h-8.5l-0.9-9.2c0-0.4-0.1-0.6-0.2-0.6c-0.2,0-0.3,0.3-0.6,0.6l-6.3,9.3H178.8L178.8,32z M178.8,6h1.8l1.9-6
		h-3.7V6z M178.8,0v6h-9.2c0,0-2.4-0.3-3.2,2.2c-0.8,2.6-1.6,5-1.6,5h13.5l-1.9,5.9h-13.5l-1.5,4.6c-0.8,2.3,1.7,2.4,1.7,2.4h12.5
		l-1.9,6h-20.7v-8.6L160.6,0H178.8L178.8,0z M178.8,26.4L175,32h3.8V26.4L178.8,26.4z M152.9,13c0.3-0.4,0.5-0.8,0.7-1.3l1.8-5.3
		c0.9-2.8,0.1-5.3-2.5-6.1V13z M144.2,6h-1.5V0h8.2c0.8,0,1.4,0.1,2,0.3V13c-1.4,1.9-3.8,2.4-3.8,2.4c4,0.8,2.5,4.5,2.5,4.5
		c-0.4,1.5-0.6,2.4-1.2,3.9c-0.6,2.2-1.2,3.9-1.9,5.5c-0.6,1.4-2.7,2.7-5.4,2.7h-0.5v-8.1l0.5-1.6c0.6-1.8,1.3-3.2-0.5-3.5V13
		c2.4-0.1,3.5-1.4,4.1-3.3l0.6-1.7c0.4-1.1-0.1-1.9-0.9-1.9H144.2L144.2,6z M152.9,23.3l-2.8,8.6h2.8V23.3z M142.7,6h-2.6l-2.2,7h4
		c0.3,0,0.6,0,0.9,0v5.8c-0.3-0.1-0.6-0.1-1.1-0.1H136l-2.4,7.3h5.8c1.1,0,2.8-0.8,3.3-1.9l0.1-0.1v8.1L123,32l10.4-32h9.2V6z"/>
	<path class="st0" d="M214.3,0.1c0.2-0.1,0.6-0.1,0.8-0.1c1.1,0,1.9,0.6,1.9,1.6v0.4c0,0.2-0.1,0.4-0.1,0.6
		c-0.4,1.2-1.5,2.2-2.6,2.4V4.6c0.9-0.2,1.7-1,2.1-2c0.4-1.2-0.2-2.2-1.4-2.2c-0.2,0-0.4,0-0.6,0.1V0.1L214.3,0.1z M214.3,3.1l0.2,1
		h0.5l-0.4-1.4c0.4,0,0.9-0.3,1-0.8c0.2-0.6-0.1-0.9-0.8-0.9h-0.6v0.4h0.4c0.3,0,0.6,0,0.5,0.4c-0.1,0.4-0.5,0.4-0.9,0.4l0,0V3.1z
		 M211.6,2.6c0.4-1.2,1.5-2.2,2.7-2.4v0.4c-0.9,0.3-1.8,1.1-2.2,2.1c-0.4,1.2,0.2,2.2,1.4,2.2c0.2,0,0.4-0.1,0.7-0.1V5
		c-0.3,0.1-0.6,0.1-0.9,0.1c-1.2,0-1.9-0.6-1.9-1.7V3.3C211.5,3.1,211.5,2.8,211.6,2.6L211.6,2.6z M214.3,1.1h-0.5l-1,3h0.4l0.4-1.3
		h0.5l0.1,0.3V2.4h-0.5l0.3-0.9h0.2V1.1z"/>
</g>
</svg>
