<?xml version="1.0" encoding="utf-8"?>
<!-- Generator: Adobe Illustrator 24.1.1, SVG Export Plug-In . SVG Version: 6.00 Build 0)  -->
<svg version="1.1" id="Layer_1" xmlns="http://www.w3.org/2000/svg" xmlns:xlink="http://www.w3.org/1999/xlink" x="0px" y="0px"
	 viewBox="0 0 412 412" style="enable-background:new 0 0 412 412;" xml:space="preserve">
<style type="text/css">
	.st0{fill:none;stroke:#000000;stroke-width:2;stroke-miterlimit:10;}
	.st1{stroke:#000000;stroke-width:2;stroke-miterlimit:10;}
	.st2{stroke:#000000;stroke-miterlimit:10;}
</style>
<g>
	<g>
		<path d="M130,43c-0.1,3.7-2.3,7.2-5.9,8.5c-3.6,1.3-7.7,0.2-10.1-2.8c-2.4-2.9-2.6-7.1-0.7-10.3c1.9-3.2,5.7-4.9,9.3-4.2
			C126.9,35,129.9,38.7,130,43c0,1.9,3,1.9,3,0c-0.1-5-3.1-9.5-7.8-11.3c-4.7-1.8-10.2-0.3-13.4,3.6c-3.2,3.9-3.7,9.5-1.1,13.8
			c2.6,4.3,7.6,6.5,12.6,5.6c5.6-1,9.7-6.1,9.7-11.8C133,41.1,130,41.1,130,43z"/>
	</g>
</g>
<g>
	<g>
		<path d="M343,358c0,2-1.3,4-3.2,4.7c-2.1,0.7-4.3,0.1-5.7-1.6c-1.3-1.5-1.4-3.9-0.4-5.7c1-1.7,3.2-2.7,5.1-2.4
			C341.3,353.5,343,355.6,343,358c0,1.9,3,1.9,3,0c0-3.4-2.1-6.3-5.3-7.5c-3.1-1.2-6.8-0.2-8.8,2.4c-2.1,2.6-2.5,6.3-0.8,9.2
			c1.7,2.9,5.1,4.4,8.4,3.8c3.7-0.7,6.4-4.1,6.4-7.8C346,356.1,343,356.1,343,358z"/>
	</g>
</g>
<g>
	<g>
		<path d="M372.6,166c-1.1-4.8,1.8-9.7,6.6-10.9c4.8-1.2,9.6,1.8,10.9,6.6c0.5,1.9,3.4,1.1,2.9-0.8c-1.3-4.9-5.4-8.4-10.4-9
			c-4.9-0.5-9.8,2.2-11.9,6.6c-1.3,2.6-1.5,5.5-0.9,8.3C370.1,168.7,373,167.9,372.6,166L372.6,166z"/>
	</g>
</g>
<rect x="34.5" y="76.5" transform="matrix(0.866 -0.5 0.5 0.866 -36.5561 32.5709)" class="st0" width="16" height="16"/>
<rect x="48.9" y="268.1" transform="matrix(0.9754 -0.2204 0.2204 0.9754 -61.6709 19.0503)" class="st0" width="11.4" height="35.6"/>
<polyline class="st0" points="178.5,286.3 179.8,302.3 163.9,303.6 "/>
<polygon class="st0" points="341.2,38 342.4,54 332.9,55 "/>
<polygon class="st0" points="84.5,175.3 84.6,157.5 97.5,162.6 "/>
<polygon class="st0" points="243,365 236,358.1 249.7,356.8 "/>
<polygon class="st0" points="209.3,160.9 198.5,152.3 201.7,138.1 212.8,147.6 "/>
<line class="st0" x1="308.5" y1="106.5" x2="313" y2="124"/>
<polygon class="st0" points="288,235.8 278.7,239.1 276.9,248.7 284.3,255.2 293.6,251.9 295.4,242.2 "/>
<line class="st1" x1="298" y1="303" x2="320" y2="319"/>
<polygon class="st1" points="271.1,175.2 274.7,167 265.7,168.1 "/>
<circle class="st2" cx="137.5" cy="105.5" r="3"/>
<line class="st0" x1="212.5" y1="46.5" x2="226.5" y2="52.5"/>
<rect x="169" y="218" transform="matrix(0.9976 6.945214e-02 -6.945214e-02 0.9976 15.7643 -11.4121)" class="st1" width="6" height="6"/>
<line class="st0" x1="94" y1="245" x2="111" y2="234"/>
<line class="st0" x1="60" y1="30" x2="60" y2="19"/>
<line class="st0" x1="13" y1="158" x2="24" y2="153"/>
<polygon class="st1" points="112.9,353 106.7,355.4 101.6,350.6 108.2,348.4 "/>
<circle class="st2" cx="24.5" cy="389.5" r="3"/>
<polygon class="st2" points="377.4,249.2 377.8,256.5 379.7,255.8 379.8,262.1 382.8,252.6 380,253.6 381.2,247.9 "/>
</svg>
